<?xml version="1.0" standalone="no"?>
<!DOCTYPE svg PUBLIC "-//W3C//DTD SVG 20010904//EN"
 "http://www.w3.org/TR/2001/REC-SVG-20010904/DTD/svg10.dtd">
<svg version="1.0" xmlns="http://www.w3.org/2000/svg"
 width="490.000000pt" height="490.000000pt" viewBox="0 0 490.000000 490.000000"
 preserveAspectRatio="xMidYMid meet">
<metadata>
Created by potrace 1.14, written by Peter Selinger 2001-2017
</metadata>
<g transform="translate(0.000000,490.000000) scale(0.100000,-0.100000)"
fill="#000000" stroke="none">
<path d="M1592 4780 c-131 -27 -226 -125 -252 -259 -6 -32 -10 -250 -10 -532
l0 -479 320 0 320 0 0 479 c0 493 -4 554 -41 626 -63 121 -205 191 -337 165z"/>
<path d="M3192 4780 c-131 -27 -226 -125 -252 -259 -6 -32 -10 -250 -10 -532
l0 -479 320 0 320 0 0 479 c0 493 -4 554 -41 626 -63 121 -205 191 -337 165z"/>
<path d="M1126 3340 c-41 -13 -94 -68 -106 -110 -13 -46 -13 -355 0 -402 13
-46 64 -96 111 -108 l37 -10 5 -453 c4 -500 4 -495 73 -637 28 -56 58 -95 118
-155 121 -121 219 -166 407 -189 78 -10 116 -19 137 -35 33 -23 62 -76 62
-113 0 -76 53 -150 121 -168 l39 -11 0 -399 0 -400 320 0 320 0 0 400 0 399
38 10 c67 18 122 95 122 169 0 37 29 90 62 113 21 16 59 25 137 35 188 23 286
68 407 189 60 60 90 99 118 155 69 142 69 137 73 637 l5 453 37 10 c45 12 98
64 111 111 13 44 13 354 0 398 -13 46 -65 99 -110 111 -44 12 -2603 12 -2644
0z"/>
</g>
</svg>
